<?xml version="1.0" encoding="utf-8"?>
<!-- Generator: Adobe Illustrator 19.2.1, SVG Export Plug-In . SVG Version: 6.00 Build 0)  -->
<svg version="1.1" xmlns="http://www.w3.org/2000/svg" xmlns:xlink="http://www.w3.org/1999/xlink" x="0px" y="0px"
	 viewBox="0 0 259.5 89.7" style="enable-background:new 0 0 259.5 89.7;" xml:space="preserve">
<style type="text/css">
	.st0{display:none;}
	.st1{display:inline;fill:url(#SVGID_1_);}
	.st2{fill:#56C0A9;}
	.st3{fill:#69BD80;}
	.st4{fill:#AAC263;}
	.st5{fill:#EEC748;}
	.st6{fill:#D43527;}
	.st7{fill:#EC6725;}
	.st8{fill:url(#SVGID_2_);}
	.st9{fill:url(#SVGID_3_);}
	.st10{fill:url(#SVGID_4_);}
	.st11{fill:#6A6C6E;}
	.st12{fill:#696A6C;}
	.st13{fill:#87898B;}
	.st14{fill:#A1A3A6;}
	.st15{fill:#231F20;}
	.st16{fill:#808083;}
	.st17{fill:#7B7D7F;}
	.st18{fill:#929497;}
	.st19{fill:#F1F1F2;}
</style>
<g id="Layer_4" class="st0">
	<linearGradient id="SVGID_1_" gradientUnits="userSpaceOnUse" x1="-165.9481" y1="-76.9171" x2="-165.9481" y2="171.7407">
		<stop  offset="0" style="stop-color:#008791"/>
		<stop  offset="1" style="stop-color:#183470"/>
	</linearGradient>
	<rect x="-468.5" y="-70.8" class="st1" width="605.2" height="233.6"/>
</g>
<g id="Layer_1">
	<g id="New_Symbol_19">
	</g>
	
		<rect x="-1890.5" y="38.2" transform="matrix(0.7071 -0.7071 0.7071 0.7071 -582.3472 -1321.7933)" class="st2" width="7.7" height="7.7"/>
	
		<rect x="-1898.3" y="30.3" transform="matrix(0.7071 -0.7071 0.7071 0.7071 -579.0169 -1329.616)" class="st2" width="7.7" height="7.7"/>
	
		<rect x="-1906.1" y="22.6" transform="matrix(0.7072 -0.707 0.707 0.7072 -575.5491 -1337.3037)" class="st3" width="7.4" height="7.4"/>
	
		<rect x="-1913.5" y="15.1" transform="matrix(0.7071 -0.7071 0.7071 0.7071 -572.4856 -1345.3856)" class="st3" width="6.4" height="6.4"/>
	
		<rect x="-1919.4" y="9.2" transform="matrix(0.7073 -0.7069 0.7069 0.7073 -568.8773 -1352.9308)" class="st4" width="2.6" height="2.6"/>
	
		<rect x="-1927.9" y="0.8" transform="matrix(0.7069 -0.7073 0.7073 0.7069 -566.3654 -1361.5646)" class="st4" width="3.7" height="3.7"/>
	
		<rect x="-1897.9" y="45.6" transform="matrix(0.7072 -0.707 0.707 0.7072 -589.4302 -1324.5592)" class="st2" width="7.7" height="7.7"/>
	
		<rect x="-1905.6" y="37.8" transform="matrix(0.7071 -0.7071 0.7071 0.7071 -586.3314 -1332.6019)" class="st3" width="7.4" height="7.4"/>
	
		<rect x="-1912.9" y="30.5" transform="matrix(0.7072 -0.707 0.707 0.7072 -582.9713 -1340.3942)" class="st3" width="6.3" height="6.3"/>
	
		<rect x="-1919.8" y="23.6" transform="matrix(0.7071 -0.7072 0.7072 0.7071 -579.9729 -1348.5377)" class="st4" width="4.3" height="4.3"/>
	
		<rect x="-1935.2" y="8.2" transform="matrix(0.7071 -0.7071 0.7071 0.7071 -573.3491 -1364.2174)" class="st5" width="3.6" height="3.6"/>
	
		<rect x="-1905.3" y="53" transform="matrix(0.7071 -0.7071 0.7071 0.7071 -597.022 -1327.8091)" class="st3" width="7.7" height="7.7"/>
	
		<rect x="-1912.4" y="45.8" transform="matrix(0.7072 -0.707 0.707 0.7072 -593.6484 -1335.5909)" class="st3" width="6.3" height="6.3"/>
	
		<rect x="-1928" y="30.2" transform="matrix(0.7071 -0.7071 0.7071 0.7071 -587.3448 -1351.5775)" class="st4" width="5.9" height="5.9"/>
	
		<rect x="-1912.4" y="60.6" transform="matrix(0.7071 -0.7072 0.7072 0.7071 -604.5555 -1331.0015)" class="st3" width="7.1" height="7.1"/>
	
		<rect x="-1918.7" y="54.3" transform="matrix(0.707 -0.7072 0.7072 0.707 -601.4553 -1339.0433)" class="st4" width="4" height="4"/>
	
		<rect x="-1927.8" y="45.2" transform="matrix(0.7072 -0.707 0.707 0.7072 -597.7676 -1346.5282)" class="st4" width="6.6" height="6.6"/>
	
		<rect x="-1934.1" y="38.9" transform="matrix(0.7071 -0.7071 0.7071 0.7071 -594.6699 -1354.5726)" class="st5" width="3.2" height="3.2"/>
	
		<rect x="-1942.9" y="30.1" transform="matrix(0.7072 -0.707 0.707 0.7072 -591.206 -1362.2655)" class="st5" width="5.1" height="5.1"/>
	
		<rect x="-1919.6" y="68.2" transform="matrix(0.7071 -0.7071 0.7071 0.7071 -611.7894 -1333.9148)" class="st4" width="6.8" height="6.8"/>
	
		<rect x="-1926.6" y="61.2" transform="matrix(0.707 -0.7072 0.7072 0.707 -608.8053 -1342.0619)" class="st4" width="5" height="5"/>
	
		<rect x="-1957.3" y="31.7" transform="matrix(0.7071 -0.7071 0.7071 0.7071 -596.3734 -1373.1097)" class="st6" width="3.3" height="3.3"/>
	
		<rect x="-1926.7" y="75.9" transform="matrix(0.707 -0.7072 0.7072 0.707 -619.4288 -1337.2034)" class="st4" width="6.2" height="6.2"/>
	
		<rect x="-1933.2" y="69.4" transform="matrix(0.7073 -0.7069 0.7069 0.7073 -615.5508 -1344.5199)" class="st5" width="3.5" height="3.5"/>
	
		<rect x="-1949.7" y="51.4" transform="matrix(0.7072 -0.7071 0.7071 0.7072 -608.3237 -1361.0386)" class="st7" width="4.9" height="4.9"/>
	
		<rect x="-1933.3" y="84" transform="matrix(0.7071 -0.7072 0.7072 0.7071 -626.7671 -1340.2124)" class="st5" width="4.7" height="4.7"/>
	
		<rect x="-1957.7" y="67.1" transform="matrix(0.7074 -0.7069 0.7069 0.7074 -621.2217 -1362.0725)" class="st6" width="4.2" height="4.2"/>
	<linearGradient id="SVGID_2_" gradientUnits="userSpaceOnUse" x1="-2051.5012" y1="27.0228" x2="-2051.5012" y2="65.0982">
		<stop  offset="0" style="stop-color:#008791"/>
		<stop  offset="1" style="stop-color:#004B8E"/>
	</linearGradient>
	<path class="st8" d="M-2101.8,25.9v8h-20.3v31.9h-8V33.9h-10.6v-8H-2101.8z M-2106.1,65.8V31.2c0-3.5,1.8-5.3,5.3-5.3h21.3
		c3.6,0,5.3,1.8,5.3,5.3v34.6h-8V55.2h-16v10.7H-2106.1z M-2082.1,33.9h-16v13.3h16V33.9z M-2068.8,65.8V31.2c0-3.5,1.8-5.3,5.3-5.3
		h21.3c3.5,0,5.3,1.8,5.3,5.3v34.6h-8l0-32h-16v32H-2068.8z M-1999.6,47.2v13.3c0,3.6-1.8,5.3-5.3,5.3h-21.3c-3.6,0-5.3-1.8-5.3-5.3
		V31.2c0-3.6,1.8-5.3,5.3-5.3h38.3l-2,8h-33.6v24h16v-8h-10.6l2.7-8h10.6C-2001.4,41.9-1999.6,43.7-1999.6,47.2z M-1962.3,60.5
		c0,3.6-1.8,5.3-5.3,5.3h-21.3c-3.6,0-5.3-1.8-5.3-5.3V31.2c0-3.6,1.8-5.3,5.3-5.3h21.3c3.6,0,5.3,1.8,5.3,5.3V60.5z M-1986.3,33.9
		v24h16v-24H-1986.3z"/>
	
		<rect x="-1976.5" y="51.6" transform="matrix(-1 1.262993e-009 -1.262993e-009 -1 -3947.4319 108.8755)" class="st2" width="5.7" height="5.7"/>
	
		<rect x="-2022.9" y="34.5" transform="matrix(-1 1.173649e-009 -1.173649e-009 -1 -4040.1226 74.7871)" class="st4" width="5.8" height="5.8"/>
	<rect x="-2051.6" y="38.9" class="st5" width="6.1" height="6.1"/>
	
		<rect x="-2093.1" y="37.5" transform="matrix(-1 1.283050e-009 -1.283050e-009 -1 -4180.209 81.0432)" class="st7" width="6" height="6"/>
	
		<rect x="-2117" y="60.3" transform="matrix(-1 1.119851e-009 -1.119851e-009 -1 -4228.3945 126.0943)" class="st6" width="5.6" height="5.6"/>
	
		<rect x="-44.6" y="38.2" transform="matrix(0.7071 -0.7071 0.7071 0.7071 -41.6512 -16.525)" class="st2" width="7.7" height="7.7"/>
	
		<rect x="-52.5" y="30.3" transform="matrix(0.7071 -0.7071 0.7071 0.7071 -38.3826 -24.4094)" class="st2" width="7.7" height="7.7"/>
	
		<rect x="-60.2" y="22.6" transform="matrix(0.7072 -0.707 0.707 0.7072 -35.1084 -32.2906)" class="st3" width="7.4" height="7.4"/>
	
		<rect x="-67.6" y="15.1" transform="matrix(0.7071 -0.7071 0.7071 0.7071 -31.8513 -40.179)" class="st3" width="6.4" height="6.4"/>
	
		<rect x="-73.6" y="9.2" transform="matrix(0.7073 -0.7069 0.7069 0.7073 -28.5708 -48.0521)" class="st4" width="2.6" height="2.6"/>
	<rect x="-82" y="0.8" transform="matrix(0.7069 -0.7073 0.7073 0.7069 -25.3371 -55.9641)" class="st4" width="3.7" height="3.7"/>
	<rect x="-52" y="45.6" transform="matrix(0.7072 -0.707 0.707 0.7072 -49.0319 -19.5886)" class="st2" width="7.7" height="7.7"/>
	
		<rect x="-59.7" y="37.8" transform="matrix(0.7071 -0.7071 0.7071 0.7071 -45.7745 -27.4726)" class="st3" width="7.4" height="7.4"/>
	
		<rect x="-67.1" y="30.5" transform="matrix(0.7072 -0.707 0.707 0.7072 -42.5041 -35.3547)" class="st3" width="6.3" height="6.3"/>
	
		<rect x="-74" y="23.6" transform="matrix(0.7071 -0.7072 0.7072 0.7071 -39.2512 -43.2436)" class="st4" width="4.3" height="4.3"/>
	
		<rect x="-89.4" y="8.2" transform="matrix(0.7071 -0.7071 0.7071 0.7071 -32.7149 -59.0108)" class="st5" width="3.6" height="3.6"/>
	
		<rect x="-59.4" y="53" transform="matrix(0.7071 -0.7071 0.7071 0.7071 -56.4371 -22.6519)" class="st3" width="7.7" height="7.7"/>
	<rect x="-66.6" y="45.8" transform="matrix(0.7072 -0.707 0.707 0.7072 -53.165 -30.5352)" class="st3" width="6.3" height="6.3"/>
	
		<rect x="-82.2" y="30.2" transform="matrix(0.7071 -0.7071 0.7071 0.7071 -46.646 -46.3065)" class="st4" width="5.9" height="5.9"/>
	
		<rect x="-66.5" y="60.6" transform="matrix(0.7071 -0.7072 0.7072 0.7071 -63.841 -25.7147)" class="st3" width="7.1" height="7.1"/>
	<rect x="-72.9" y="54.3" transform="matrix(0.707 -0.7072 0.7072 0.707 -60.5858 -33.6016)" class="st4" width="4" height="4"/>
	<rect x="-82" y="45.2" transform="matrix(0.7072 -0.707 0.707 0.7072 -57.2928 -41.4812)" class="st4" width="6.6" height="6.6"/>
	
		<rect x="-88.2" y="38.9" transform="matrix(0.7071 -0.7071 0.7071 0.7071 -54.0381 -49.3685)" class="st5" width="3.2" height="3.2"/>
	<rect x="-97" y="30.1" transform="matrix(0.7072 -0.707 0.707 0.7072 -50.7594 -57.2466)" class="st5" width="5.1" height="5.1"/>
	
		<rect x="-73.8" y="68.2" transform="matrix(0.7071 -0.7071 0.7071 0.7071 -71.226 -28.779)" class="st4" width="6.8" height="6.8"/>
	<rect x="-80.7" y="61.2" transform="matrix(0.707 -0.7072 0.7072 0.707 -67.9801 -36.6644)" class="st4" width="5" height="5"/>
	
		<rect x="-111.4" y="31.7" transform="matrix(0.7071 -0.7071 0.7071 0.7071 -55.7059 -67.8699)" class="st6" width="3.3" height="3.3"/>
	<rect x="-80.9" y="75.9" transform="matrix(0.707 -0.7072 0.7072 0.707 -78.64 -31.8423)" class="st4" width="6.2" height="6.2"/>
	
		<rect x="-87.4" y="69.4" transform="matrix(0.7073 -0.7069 0.7069 0.7073 -75.3266 -39.7234)" class="st5" width="3.5" height="3.5"/>
	
		<rect x="-103.9" y="51.4" transform="matrix(0.7072 -0.7071 0.7071 0.7072 -67.781 -55.9236)" class="st7" width="4.9" height="4.9"/>
	
		<rect x="-87.5" y="84" transform="matrix(0.7071 -0.7072 0.7072 0.7071 -86.0321 -34.9052)" class="st5" width="4.7" height="4.7"/>
	
		<rect x="-111.9" y="67.1" transform="matrix(0.7074 -0.7069 0.7069 0.7074 -81.058 -57.3367)" class="st6" width="4.2" height="4.2"/>
	<linearGradient id="SVGID_3_" gradientUnits="userSpaceOnUse" x1="-205.6603" y1="27.0228" x2="-205.6603" y2="65.0982">
		<stop  offset="0" style="stop-color:#96FFF7"/>
		<stop  offset="1" style="stop-color:#45BEC0"/>
	</linearGradient>
	<path class="st9" d="M-255.9,25.9v8h-20.3v31.9h-8V33.9h-10.6v-8H-255.9z M-260.2,65.8V31.2c0-3.5,1.8-5.3,5.3-5.3h21.3
		c3.6,0,5.3,1.8,5.3,5.3v34.6h-8V55.2h-16v10.7H-260.2z M-236.3,33.9h-16v13.3h16V33.9z M-223,65.8V31.2c0-3.5,1.8-5.3,5.3-5.3h21.3
		c3.5,0,5.3,1.8,5.3,5.3v34.6h-8l0-32h-16v32H-223z M-153.7,47.2v13.3c0,3.6-1.8,5.3-5.3,5.3h-21.3c-3.6,0-5.3-1.8-5.3-5.3V31.2
		c0-3.6,1.8-5.3,5.3-5.3h38.3l-2,8h-33.6v24h16v-8h-10.6l2.7-8h10.6C-155.5,41.9-153.7,43.7-153.7,47.2z M-116.5,60.5
		c0,3.6-1.8,5.3-5.3,5.3h-21.3c-3.6,0-5.3-1.8-5.3-5.3V31.2c0-3.6,1.8-5.3,5.3-5.3h21.3c3.6,0,5.3,1.8,5.3,5.3V60.5z M-140.4,33.9
		v24h16v-24H-140.4z"/>
	
		<rect x="-130.7" y="51.6" transform="matrix(-1 1.262993e-009 -1.262993e-009 -1 -255.7501 108.8755)" class="st2" width="5.7" height="5.7"/>
	
		<rect x="-177.1" y="34.5" transform="matrix(-1 1.173649e-009 -1.173649e-009 -1 -348.4409 74.7871)" class="st4" width="5.8" height="5.8"/>
	<rect x="-205.7" y="38.9" class="st5" width="6.1" height="6.1"/>
	
		<rect x="-247.3" y="37.5" transform="matrix(-1 1.283050e-009 -1.283050e-009 -1 -488.5274 81.0432)" class="st7" width="6" height="6"/>
	
		<rect x="-271.2" y="60.3" transform="matrix(-1 1.119851e-009 -1.119851e-009 -1 -536.7126 126.0943)" class="st6" width="5.6" height="5.6"/>
	
		<rect x="250.2" y="38.2" transform="matrix(0.7071 -0.7071 0.7071 0.7071 44.7176 191.9737)" class="st2" width="7.7" height="7.7"/>
	
		<rect x="242.3" y="30.3" transform="matrix(0.7071 -0.7071 0.7071 0.7071 47.9763 184.0794)" class="st2" width="7.7" height="7.7"/>
	<rect x="234.6" y="22.6" transform="matrix(0.7072 -0.707 0.707 0.7072 51.2196 176.1673)" class="st3" width="7.4" height="7.4"/>
	
		<rect x="227.2" y="15.1" transform="matrix(0.7071 -0.7071 0.7071 0.7071 54.5076 168.3098)" class="st3" width="6.4" height="6.4"/>
	
		<rect x="221.2" y="9.2" transform="matrix(0.7073 -0.7069 0.7069 0.7073 57.7357 160.3844)" class="st4" width="2.6" height="2.6"/>
	
		<rect x="212.8" y="0.8" transform="matrix(0.7069 -0.7073 0.7073 0.7069 61.0847 152.5876)" class="st4" width="3.7" height="3.7"/>
	<rect x="242.8" y="45.6" transform="matrix(0.7072 -0.707 0.707 0.7072 37.2893 188.8625)" class="st2" width="7.7" height="7.7"/>
	
		<rect x="235.1" y="37.8" transform="matrix(0.7071 -0.7071 0.7071 0.7071 40.5721 181.0038)" class="st3" width="7.4" height="7.4"/>
	<rect x="227.8" y="30.5" transform="matrix(0.7072 -0.707 0.707 0.7072 43.8282 173.1075)" class="st3" width="6.3" height="6.3"/>
	
		<rect x="220.9" y="23.6" transform="matrix(0.7071 -0.7072 0.7072 0.7071 47.1217 165.2591)" class="st4" width="4.3" height="4.3"/>
	<rect x="205.5" y="8.2" transform="matrix(0.7071 -0.7071 0.7071 0.7071 53.644 149.478)" class="st5" width="3.6" height="3.6"/>
	<rect x="235.4" y="53" transform="matrix(0.7071 -0.7071 0.7071 0.7071 29.9139 185.829)" class="st3" width="7.7" height="7.7"/>
	<rect x="228.2" y="45.8" transform="matrix(0.7072 -0.707 0.707 0.7072 33.1698 177.9295)" class="st3" width="6.3" height="6.3"/>
	
		<rect x="212.7" y="30.2" transform="matrix(0.7071 -0.7071 0.7071 0.7071 39.7232 162.1927)" class="st4" width="5.9" height="5.9"/>
	
		<rect x="228.3" y="60.6" transform="matrix(0.7071 -0.7072 0.7072 0.7071 22.5307 182.7869)" class="st3" width="7.1" height="7.1"/>
	<rect x="222" y="54.3" transform="matrix(0.707 -0.7072 0.7072 0.707 25.8106 174.9247)" class="st4" width="4" height="4"/>
	<rect x="212.8" y="45.2" transform="matrix(0.7072 -0.707 0.707 0.7072 29.0406 166.9821)" class="st4" width="6.6" height="6.6"/>
	
		<rect x="206.6" y="38.9" transform="matrix(0.7071 -0.7071 0.7071 0.7071 32.3204 159.1199)" class="st5" width="3.2" height="3.2"/>
	<rect x="197.8" y="30.1" transform="matrix(0.7072 -0.707 0.707 0.7072 35.5695 151.2122)" class="st5" width="5.1" height="5.1"/>
	
		<rect x="221.1" y="68.2" transform="matrix(0.7071 -0.7071 0.7071 0.7071 15.1216 179.6985)" class="st4" width="6.8" height="6.8"/>
	<rect x="214.1" y="61.2" transform="matrix(0.707 -0.7072 0.7072 0.707 18.4093 171.8549)" class="st4" width="5" height="5"/>
	
		<rect x="183.4" y="31.7" transform="matrix(0.7071 -0.7071 0.7071 0.7071 30.6583 140.6242)" class="st6" width="3.3" height="3.3"/>
	<rect x="214" y="75.9" transform="matrix(0.707 -0.7072 0.7072 0.707 7.7435 176.6712)" class="st4" width="6.2" height="6.2"/>
	
		<rect x="207.5" y="69.4" transform="matrix(0.7073 -0.7069 0.7069 0.7073 10.9668 168.6998)" class="st5" width="3.5" height="3.5"/>
	<rect x="191" y="51.4" transform="matrix(0.7072 -0.7071 0.7071 0.7072 18.5633 152.5506)" class="st7" width="4.9" height="4.9"/>
	<rect x="207.3" y="84" transform="matrix(0.7071 -0.7072 0.7072 0.7071 0.3429 173.5997)" class="st5" width="4.7" height="4.7"/>
	<rect x="183" y="67.1" transform="matrix(0.7074 -0.7069 0.7069 0.7074 5.2257 151.0769)" class="st6" width="4.2" height="4.2"/>
	<linearGradient id="SVGID_4_" gradientUnits="userSpaceOnUse" x1="89.1874" y1="27.0228" x2="89.1874" y2="65.0982">
		<stop  offset="0" style="stop-color:#445F5D"/>
		<stop  offset="1" style="stop-color:#231F20"/>
	</linearGradient>
	<path class="st10" d="M38.9,25.9v8H18.6v31.9h-8V33.9H0v-8H38.9z M34.6,65.8V31.2c0-3.5,1.8-5.3,5.3-5.3h21.3
		c3.6,0,5.3,1.8,5.3,5.3v34.6h-8V55.2h-16v10.7H34.6z M58.6,33.9h-16v13.3h16V33.9z M71.9,65.8V31.2c0-3.5,1.8-5.3,5.3-5.3h21.3
		c3.5,0,5.3,1.8,5.3,5.3v34.6h-8l0-32h-16v32H71.9z M141.1,47.2v13.3c0,3.6-1.8,5.3-5.3,5.3h-21.3c-3.6,0-5.3-1.8-5.3-5.3V31.2
		c0-3.6,1.8-5.3,5.3-5.3h38.3l-2,8h-33.6v24h16v-8h-10.6l2.7-8h10.6C139.3,41.9,141.1,43.7,141.1,47.2z M178.4,60.5
		c0,3.6-1.8,5.3-5.3,5.3h-21.3c-3.6,0-5.3-1.8-5.3-5.3V31.2c0-3.6,1.8-5.3,5.3-5.3H173c3.6,0,5.3,1.8,5.3,5.3V60.5z M154.4,33.9v24
		h16v-24H154.4z"/>
	
		<rect x="164.1" y="51.6" transform="matrix(-1 1.262832e-009 -1.262832e-009 -1 333.9453 108.8755)" class="st2" width="5.7" height="5.7"/>
	
		<rect x="117.7" y="34.5" transform="matrix(-1 1.173649e-009 -1.173649e-009 -1 241.2545 74.7871)" class="st4" width="5.8" height="5.8"/>
	<rect x="89.1" y="38.9" class="st5" width="6.1" height="6.1"/>
	
		<rect x="47.6" y="37.5" transform="matrix(-1 1.282898e-009 -1.282898e-009 -1 101.168 81.0432)" class="st7" width="6" height="6"/>
	
		<rect x="23.7" y="60.3" transform="matrix(-1 1.119851e-009 -1.119851e-009 -1 52.9827 126.0943)" class="st6" width="5.6" height="5.6"/>
	
		<rect x="-1276" y="45.6" transform="matrix(0.7071 -0.7071 0.7071 0.7071 -407.646 -885.1251)" class="st11" width="7.7" height="7.7"/>
	
		<rect x="-1283.9" y="37.7" transform="matrix(0.7071 -0.7071 0.7071 0.7071 -404.336 -892.9687)" class="st11" width="7.7" height="7.7"/>
	
		<rect x="-1291.6" y="30" transform="matrix(0.7072 -0.707 0.707 0.7072 -400.9319 -900.7215)" class="st12" width="7.4" height="7.4"/>
	
		<rect x="-1299.1" y="22.6" transform="matrix(0.7071 -0.7071 0.7071 0.7071 -397.8047 -908.7382)" class="st12" width="6.4" height="6.4"/>
	
		<rect x="-1305" y="16.6" transform="matrix(0.7073 -0.7069 0.7069 0.7073 -394.3042 -916.3939)" class="st13" width="2.6" height="2.6"/>
	
		<rect x="-1313.4" y="8.2" transform="matrix(0.7069 -0.7073 0.7073 0.7069 -391.555 -924.7845)" class="st13" width="3.7" height="3.7"/>
	
		<rect x="-1283.4" y="53" transform="matrix(0.7072 -0.707 0.707 0.7072 -414.8269 -887.9913)" class="st11" width="7.7" height="7.7"/>
	
		<rect x="-1291.2" y="45.3" transform="matrix(0.7071 -0.7071 0.7071 0.7071 -411.6759 -895.9806)" class="st12" width="7.4" height="7.4"/>
	
		<rect x="-1298.5" y="38" transform="matrix(0.7072 -0.707 0.707 0.7072 -408.3453 -903.8031)" class="st12" width="6.3" height="6.3"/>
	
		<rect x="-1305.4" y="31" transform="matrix(0.7071 -0.7072 0.7072 0.7071 -405.2632 -911.8608)" class="st13" width="4.3" height="4.3"/>
	
		<rect x="-1320.8" y="15.7" transform="matrix(0.7071 -0.7071 0.7071 0.7071 -398.6682 -927.57)" class="st14" width="3.6" height="3.6"/>
	
		<rect x="-1290.8" y="60.4" transform="matrix(0.7071 -0.7071 0.7071 0.7071 -422.3574 -891.1783)" class="st12" width="7.7" height="7.7"/>
	
		<rect x="-1298" y="53.2" transform="matrix(0.7072 -0.707 0.707 0.7072 -419.0171 -898.9944)" class="st12" width="6.3" height="6.3"/>
	
		<rect x="-1313.6" y="37.7" transform="matrix(0.7071 -0.7071 0.7071 0.7071 -412.6427 -914.9084)" class="st13" width="5.9" height="5.9"/>
	
		<rect x="-1297.9" y="68.1" transform="matrix(0.7071 -0.7072 0.7072 0.7071 -429.8482 -894.3271)" class="st12" width="7.1" height="7.1"/>
	
		<rect x="-1304.3" y="61.8" transform="matrix(0.707 -0.7072 0.7072 0.707 -426.6971 -902.3168)" class="st13" width="4" height="4"/>
	
		<rect x="-1313.4" y="52.6" transform="matrix(0.7072 -0.707 0.707 0.7072 -423.1391 -909.9346)" class="st13" width="6.6" height="6.6"/>
	
		<rect x="-1319.6" y="46.4" transform="matrix(0.7071 -0.7071 0.7071 0.7071 -419.9898 -917.9261)" class="st14" width="3.2" height="3.2"/>
	
		<rect x="-1328.4" y="37.6" transform="matrix(0.7072 -0.707 0.707 0.7072 -416.5868 -925.6813)" class="st14" width="5.1" height="5.1"/>
	
		<rect x="-1305.2" y="75.6" transform="matrix(0.7071 -0.7071 0.7071 0.7071 -437.1318 -897.2913)" class="st13" width="6.8" height="6.8"/>
	
		<rect x="-1312.1" y="68.7" transform="matrix(0.707 -0.7072 0.7072 0.707 -434.0616 -905.3502)" class="st13" width="5" height="5"/>
	
		<rect x="-1342.8" y="39.1" transform="matrix(0.7071 -0.7071 0.7071 0.7071 -421.6816 -936.4512)" class="st15" width="3.3" height="3.3"/>
	
		<rect x="-1312.3" y="83.4" transform="matrix(0.707 -0.7072 0.7072 0.707 -444.6971 -900.504)" class="st13" width="6.2" height="6.2"/>
	
		<rect x="-1318.8" y="76.8" transform="matrix(0.7073 -0.7069 0.7069 0.7073 -441.0048 -908.0107)" class="st14" width="3.5" height="3.5"/>
	
		<rect x="-1335.3" y="58.9" transform="matrix(0.7072 -0.7071 0.7071 0.7072 -433.6729 -924.4221)" class="st16" width="4.9" height="4.9"/>
	
		<rect x="-1318.9" y="91.5" transform="matrix(0.7071 -0.7072 0.7072 0.7071 -452.0531 -903.5312)" class="st14" width="4.7" height="4.7"/>
	
		<rect x="-1343.3" y="74.6" transform="matrix(0.7074 -0.7069 0.7069 0.7074 -446.6956 -925.5838)" class="st15" width="4.2" height="4.2"/>
	<path class="st17" d="M-1487.3,33.4v8h-20.3v31.9h-8V41.4h-10.6v-8H-1487.3z"/>
	<path class="st17" d="M-1491.7,73.3V38.7c0-3.5,1.8-5.3,5.3-5.3h21.3c3.6,0,5.3,1.8,5.3,5.3v34.6h-8V62.6h-16v10.7H-1491.7z
		 M-1467.7,41.3h-16v13.3h16V41.3z"/>
	<path class="st17" d="M-1454.4,73.3V38.7c0-3.5,1.8-5.3,5.3-5.3h21.3c3.5,0,5.3,1.8,5.3,5.3v34.6h-8l0-32h-16v32H-1454.4z"/>
	<path class="st17" d="M-1385.2,54.7V68c0,3.6-1.8,5.3-5.3,5.3h-21.3c-3.6,0-5.3-1.8-5.3-5.3V38.7c0-3.6,1.8-5.3,5.3-5.3h38.3l-2,8
		h-33.6v24h16v-8h-10.6l2.7-8h10.6C-1386.9,49.3-1385.2,51.1-1385.2,54.7z"/>
	<path class="st17" d="M-1347.9,68c0,3.6-1.8,5.3-5.3,5.3h-21.3c-3.6,0-5.3-1.8-5.3-5.3V38.7c0-3.6,1.8-5.3,5.3-5.3h21.3
		c3.6,0,5.3,1.8,5.3,5.3V68z M-1371.9,41.4v24h16v-24H-1371.9z"/>
	
		<rect x="-1362.1" y="59.1" transform="matrix(-1 1.262832e-009 -1.262832e-009 -1 -2718.5911 123.8058)" class="st11" width="5.7" height="5.7"/>
	
		<rect x="-1408.5" y="42" transform="matrix(-1 1.173806e-009 -1.173806e-009 -1 -2811.2817 89.7174)" class="st13" width="5.8" height="5.8"/>
	<rect x="-1437.2" y="46.4" class="st14" width="6.1" height="6.1"/>
	
		<rect x="-1478.7" y="45" transform="matrix(-1 1.283050e-009 -1.283050e-009 -1 -2951.3682 95.9736)" class="st16" width="6" height="6"/>
	
		<rect x="-1502.6" y="67.7" transform="matrix(-1 1.119851e-009 -1.119851e-009 -1 -2999.5535 141.0247)" class="st15" width="5.6" height="5.6"/>
	<rect x="-1078.9" y="-69.9" class="st18" width="595.3" height="231.8"/>
</g>
<g id="Capa_3">
	
		<rect x="-659.8" y="38.6" transform="matrix(0.7071 -0.7071 0.7071 0.7071 -222.1711 -451.379)" class="st19" width="7.7" height="7.7"/>
	
		<rect x="-667.6" y="30.7" transform="matrix(0.7071 -0.7071 0.7071 0.7071 -218.882 -459.243)" class="st19" width="7.7" height="7.7"/>
	
		<rect x="-675.4" y="23" transform="matrix(0.7072 -0.707 0.707 0.7072 -215.5432 -467.0597)" class="st19" width="7.4" height="7.4"/>
	
		<rect x="-682.8" y="15.6" transform="matrix(0.7071 -0.7071 0.7071 0.7071 -212.3506 -475.0125)" class="st19" width="6.4" height="6.4"/>
	
		<rect x="-688.7" y="9.6" transform="matrix(0.7073 -0.7069 0.7069 0.7073 -208.9608 -482.7764)" class="st19" width="2.6" height="2.6"/>
	
		<rect x="-697.2" y="1.2" transform="matrix(0.7069 -0.7073 0.7073 0.7069 -205.9678 -490.9288)" class="st19" width="3.7" height="3.7"/>
	
		<rect x="-667.2" y="46" transform="matrix(0.7072 -0.707 0.707 0.7072 -229.4525 -454.3435)" class="st19" width="7.7" height="7.7"/>
	
		<rect x="-674.9" y="38.3" transform="matrix(0.7071 -0.7071 0.7071 0.7071 -226.248 -462.2804)" class="st19" width="7.4" height="7.4"/>
	
		<rect x="-682.2" y="31" transform="matrix(0.7072 -0.707 0.707 0.7072 -222.9477 -470.1326)" class="st19" width="6.3" height="6.3"/>
	
		<rect x="-689.1" y="24" transform="matrix(0.7071 -0.7072 0.7072 0.7071 -219.7796 -478.1063)" class="st19" width="4.3" height="4.3"/>
	
		<rect x="-704.5" y="8.7" transform="matrix(0.7071 -0.7071 0.7071 0.7071 -213.2142 -493.8443)" class="st19" width="3.6" height="3.6"/>
	
		<rect x="-674.6" y="53.4" transform="matrix(0.7071 -0.7071 0.7071 0.7071 -236.92 -457.4689)" class="st19" width="7.7" height="7.7"/>
	
		<rect x="-681.7" y="46.2" transform="matrix(0.7072 -0.707 0.707 0.7072 -233.614 -465.3185)" class="st19" width="6.3" height="6.3"/>
	
		<rect x="-697.3" y="30.7" transform="matrix(0.7071 -0.7071 0.7071 0.7071 -227.1668 -481.1615)" class="st19" width="5.9" height="5.9"/>
	
		<rect x="-681.7" y="61.1" transform="matrix(0.7071 -0.7072 0.7072 0.7071 -244.3671 -460.5749)" class="st19" width="7.1" height="7.1"/>
	<rect x="-688" y="54.8" transform="matrix(0.707 -0.7072 0.7072 0.707 -241.1636 -468.5135)" class="st19" width="4" height="4"/>
	
		<rect x="-697.1" y="45.6" transform="matrix(0.7072 -0.707 0.707 0.7072 -237.7389 -476.2616)" class="st19" width="6.6" height="6.6"/>
	
		<rect x="-703.4" y="39.4" transform="matrix(0.7071 -0.7071 0.7071 0.7071 -234.5366 -484.2012)" class="st19" width="3.2" height="3.2"/>
	
		<rect x="-712.2" y="30.6" transform="matrix(0.7072 -0.707 0.707 0.7072 -231.1961 -492.0176)" class="st19" width="5.1" height="5.1"/>
	
		<rect x="-688.9" y="68.6" transform="matrix(0.7071 -0.7071 0.7071 0.7071 -251.7017 -463.589)" class="st19" width="6.8" height="6.8"/>
	
		<rect x="-695.9" y="61.7" transform="matrix(0.707 -0.7072 0.7072 0.707 -248.5431 -471.5615)" class="st19" width="5" height="5"/>
	
		<rect x="-726.6" y="32.1" transform="matrix(0.7071 -0.7071 0.7071 0.7071 -236.2163 -502.7145)" class="st19" width="3.3" height="3.3"/>
	
		<rect x="-696" y="76.4" transform="matrix(0.707 -0.7072 0.7072 0.707 -259.1909 -466.7272)" class="st19" width="6.2" height="6.2"/>
	
		<rect x="-702.5" y="69.8" transform="matrix(0.7073 -0.7069 0.7069 0.7073 -255.6892 -474.4204)" class="st19" width="3.5" height="3.5"/>
	
		<rect x="-719" y="51.9" transform="matrix(0.7072 -0.7071 0.7071 0.7072 -248.2498 -490.7266)" class="st19" width="4.9" height="4.9"/>
	
		<rect x="-702.6" y="84.5" transform="matrix(0.7071 -0.7072 0.7072 0.7071 -266.565 -469.7722)" class="st19" width="4.7" height="4.7"/>
	
		<rect x="-727" y="67.6" transform="matrix(0.7074 -0.7069 0.7069 0.7074 -261.4004 -492.0135)" class="st19" width="4.2" height="4.2"/>
	<path class="st19" d="M-848.8,26.3h-21.3c-0.4,0-0.7,0-1,0.1v0H-910v8h10.6v31.9h8V34.4h16v31.9h8V55.6h16v10.7h8V31.7
		C-843.4,28.1-845.2,26.3-848.8,26.3z M-851.4,47.6h-16V34.3h16V47.6z"/>
	<path class="st19" d="M-838.1,66.3V31.7c0-3.5,1.8-5.3,5.3-5.3h21.3c3.5,0,5.3,1.8,5.3,5.3v34.6h-8l0-32h-16v32H-838.1z"/>
	<path class="st19" d="M-736.9,26.4h-20.3h-1h-37.3c-3.6,0-5.3,1.8-5.3,5.3V61c0,3.6,1.8,5.3,5.3,5.3h21.3c3.5,0,5.3-1.8,5.3-5.3
		V47.7c0-3.6-1.8-5.3-5.3-5.3h-10.6l-2.7,8h10.6v8h-16v-24h29.3V61c0,3.6,1.8,5.3,5.3,5.3h21.3c3.6,0,5.3-1.8,5.3-5.3V31.7
		C-731.6,28.1-733.4,26.4-736.9,26.4z M-739.6,58.3h-16v-24h16V58.3z"/>
	
		<rect x="-745.8" y="52.1" transform="matrix(-1 1.262832e-009 -1.262832e-009 -1 -1486.0304 109.8058)" class="st19" width="5.7" height="5.7"/>
	
		<rect x="-792.2" y="35" transform="matrix(-1 1.173806e-009 -1.173806e-009 -1 -1578.7212 75.7174)" class="st19" width="5.8" height="5.8"/>
	<rect x="-820.9" y="39.4" class="st19" width="6.1" height="6.1"/>
	
		<rect x="-862.4" y="38" transform="matrix(-1 1.283050e-009 -1.283050e-009 -1 -1718.8076 81.9736)" class="st19" width="6" height="6"/>
	
		<rect x="-886.3" y="60.7" transform="matrix(-1 1.119851e-009 -1.119851e-009 -1 -1766.9929 127.0247)" class="st19" width="5.6" height="5.6"/>
</g>
</svg>
